<svg xmlns="http://www.w3.org/2000/svg" version="1.1" xmlns:xlink="http://www.w3.org/1999/xlink" width="390" height="390"><svg xmlns="http://www.w3.org/2000/svg" version="1.1" xmlns:xlink="http://www.w3.org/1999/xlink" width="390" height="390"><svg width="390" height="390" xmlns="http://www.w3.org/2000/svg">

 <g>
  <title>Layer 1</title>
  <ellipse stroke-width="0" ry="195" rx="195" id="svg_1" cy="195" cx="195" stroke="#000" fill="#127e6c"></ellipse>
  <g stroke="null">
   <path stroke="null" d="m270.0315,154.77001c-47.52953,-35.32696 -63.90439,-63.60581 -75.03049,-85.48872l0,0c0,0 0,0 0,0l0,0c-11.11825,21.88291 -27.50097,50.16176 -75.03049,85.48872c-81.04142,60.22712 -4.7616,144.3015 62.30933,98.02916c-4.36872,28.71101 -19.28211,49.64317 -34.42335,58.65563l-0.00786,9.2639l47.14451,0l47.14451,0l0,-9.2639c-15.1491,-9.01246 -30.05463,-29.94462 -34.43121,-58.65563c67.07879,46.26448 143.36647,-37.80204 62.32505,-98.02916z"></path>
  </g>
 </g>
</svg></svg><style>@media (prefers-color-scheme: light) { :root { filter: none; } }
@media (prefers-color-scheme: dark) { :root { filter: none; } }
</style></svg>